<svg xmlns:xlink="http://www.w3.org/1999/xlink" width="512" xmlns="http://www.w3.org/2000/svg" height="512" id="screenshot-b4ec53c2-a963-80ab-8002-42a51b4ce48b" viewBox="0 0 512 512" style="-webkit-print-color-adjust: exact;" fill="none" version="1.1"><g id="shape-b4ec53c2-a963-80ab-8002-42a51b4ce48b"><defs><clipPath class="frame-clip-def frame-clip" id="frame-clip-b4ec53c2-a963-80ab-8002-42a51b4ce48b-rumext-id-1"><rect rx="0" ry="0" x="0" y="0" width="512" height="512" transform="matrix(1.000000, 0.000000, 0.000000, 1.000000, 0.000000, 0.000000)"/></clipPath></defs><g clip-path="url(#frame-clip-b4ec53c2-a963-80ab-8002-42a51b4ce48b-rumext-id-1)"><clipPath class="frame-clip-def frame-clip" id="frame-clip-b4ec53c2-a963-80ab-8002-42a51b4ce48b-rumext-id-1"><rect rx="0" ry="0" x="0" y="0" width="512" height="512" transform="matrix(1.000000, 0.000000, 0.000000, 1.000000, 0.000000, 0.000000)"/></clipPath><g class="fills" id="fills-b4ec53c2-a963-80ab-8002-42a51b4ce48b"><rect rx="0" ry="0" x="0" y="0" transform="matrix(1.000000, 0.000000, 0.000000, 1.000000, 0.000000, 0.000000)" width="512" height="512" class="frame-background"/></g><g class="frame-children"><g id="shape-b4ec53c2-a963-80ab-8002-42a534921615"><g class="fills" id="fills-b4ec53c2-a963-80ab-8002-42a534921615"><rect rx="180" ry="180" x="31" y="31" transform="matrix(1.000000, 0.000000, 0.000000, 1.000000, 0.000000, 0.000000)" width="450" height="450" style="fill: rgb(17, 24, 39); fill-opacity: 1;"/></g></g><g id="shape-87d48527-8a5c-8090-8002-42a9547d1e5f" version="1.1" xmlns:xlink="http://www.w3.org/1999/xlink" xml:space="preserve" rx="0" ry="0" style="fill: rgb(0, 0, 0);"><g id="shape-87d48527-8a5c-8090-8002-42a9547d9b10" rx="0" ry="0" style="fill: rgb(0, 0, 0);"/><g id="shape-87d48527-8a5c-8090-8002-42a9547d9b11" rx="0" ry="0" style="fill: rgb(0, 0, 0);"/><g id="shape-87d48527-8a5c-8090-8002-42a9547df27b" rx="0" ry="0" style="fill: rgb(0, 0, 0);"><g id="shape-87d48527-8a5c-8090-8002-42a9547df27c"><style fill="#ffffff" type="text/css" rx="0" ry="0" style="fill: rgb(255, 255, 255);"/></g><g id="shape-87d48527-8a5c-8090-8002-42a9547e169e" rx="0" ry="0" style="fill: rgb(0, 0, 0);"><g id="shape-87d48527-8a5c-8090-8002-42a9547f2cae"><g class="fills" id="fills-87d48527-8a5c-8090-8002-42a9547f2cae"><path class="st0" rx="0" ry="0" d="M392.509,99.002C392.509,99.002,381.079,116.411,306.414,142.174C230.298,168.437,183.444,275.314,183.444,275.314C172.159,297.203,127.573,388.181,127.573,388.181C115.297,411.666,137.801,425.547,150.991,401.294C176.311,354.718,192.635,312.161,231.125,310.950C287.246,309.181,325.631,259.203,313.557,261.510C297.657,268.576,262.627,262.049,283.266,258.809C332.812,254.752,363.324,216.790,353.384,214.204C335.811,221.107,319.440,214.560,316.229,212.570C403.670,201.736,392.509,99.002,392.509,99.002ZZ" style="fill: rgb(255, 255, 255);"/></g></g></g></g></g></g></g></g></svg>